<svg width="12" height="15" viewBox="0 0 12 15" fill="none" xmlns="http://www.w3.org/2000/svg">
<g id="Icon" clip-path="url(#clip0_19_200)">
<path id="Vector" d="M11.0479 11.2144C11.0479 11.8394 10.8577 12.3328 10.4775 12.6948C10.0973 13.0568 9.59212 13.2378 8.96191 13.2378H2.13379C1.50358 13.2378 0.998372 13.0568 0.618164 12.6948C0.237956 12.3328 0.0478516 11.8394 0.0478516 11.2144C0.0478516 10.9383 0.0569661 10.6688 0.0751953 10.4058C0.0934245 10.1427 0.129883 9.85889 0.18457 9.5542C0.239258 9.24951 0.308268 8.96696 0.391602 8.70654C0.474935 8.44613 0.586914 8.19222 0.727539 7.94482C0.868164 7.69743 1.02962 7.48649 1.21191 7.31201C1.39421 7.13753 1.61686 6.99821 1.87988 6.89404C2.1429 6.78988 2.43327 6.73779 2.75098 6.73779C2.79785 6.73779 2.90723 6.79378 3.0791 6.90576C3.25098 7.01774 3.44499 7.14274 3.66113 7.28076C3.87728 7.41878 4.15853 7.54378 4.50488 7.65576C4.85124 7.76774 5.19889 7.82373 5.54785 7.82373C5.89681 7.82373 6.24447 7.76774 6.59082 7.65576C6.93717 7.54378 7.21842 7.41878 7.43457 7.28076C7.65072 7.14274 7.84473 7.01774 8.0166 6.90576C8.18848 6.79378 8.29785 6.73779 8.34473 6.73779C8.66243 6.73779 8.9528 6.78988 9.21582 6.89404C9.47884 6.99821 9.7015 7.13753 9.88379 7.31201C10.0661 7.48649 10.2275 7.69743 10.3682 7.94482C10.5088 8.19222 10.6208 8.44613 10.7041 8.70654C10.7874 8.96696 10.8564 9.24951 10.9111 9.5542C10.9658 9.85889 11.0023 10.1427 11.0205 10.4058C11.0387 10.6688 11.0479 10.9383 11.0479 11.2144ZM7.66895 2.1167C7.66895 2.1167 7.81543 2.26318 8.1084 2.55615C8.40137 2.84912 8.54785 3.40967 8.54785 4.23779C8.54785 5.06592 8.25488 5.77295 7.66895 6.35889C7.08301 6.94482 6.37598 7.23779 5.54785 7.23779C4.71973 7.23779 4.0127 6.94482 3.42676 6.35889C2.84082 5.77295 2.54785 5.06592 2.54785 4.23779C2.54785 3.40967 2.84082 2.70264 3.42676 2.1167C4.0127 1.53076 4.71973 1.23779 5.54785 1.23779C6.37598 1.23779 7.08301 1.53076 7.66895 2.1167Z" fill="#86999B"/>
</g>
<defs>
<clipPath id="clip0_19_200">
<rect width="11" height="14" fill="white" transform="matrix(1 0 0 -1 0.0478516 14.2378)"/>
</clipPath>
</defs>
</svg>
