<svg width="10" height="15" viewBox="0 0 10 15" fill="none" xmlns="http://www.w3.org/2000/svg">
<g id="Icon" clip-path="url(#clip0_19_205)">
<path id="Vector" d="M4.18774 6.98779V3.48779C4.18774 3.41488 4.16431 3.35498 4.11743 3.30811C4.07056 3.26123 4.01066 3.23779 3.93774 3.23779C3.86483 3.23779 3.80493 3.26123 3.75806 3.30811C3.71118 3.35498 3.68774 3.41488 3.68774 3.48779V6.98779C3.68774 7.06071 3.71118 7.12061 3.75806 7.16748C3.80493 7.21436 3.86483 7.23779 3.93774 7.23779C4.01066 7.23779 4.07056 7.21436 4.11743 7.16748C4.16431 7.12061 4.18774 7.06071 4.18774 6.98779ZM9.43774 9.73779C9.43774 9.87321 9.38826 9.9904 9.28931 10.0894C9.19035 10.1883 9.07316 10.2378 8.93774 10.2378H5.58618L5.18774 14.0112C5.17733 14.0737 5.14998 14.1271 5.10571 14.1714C5.06144 14.2157 5.00806 14.2378 4.94556 14.2378H4.93774C4.79712 14.2378 4.71379 14.1675 4.68774 14.0269L4.09399 10.2378H0.937744C0.802327 10.2378 0.68514 10.1883 0.586182 10.0894C0.487223 9.9904 0.437744 9.87321 0.437744 9.73779C0.437744 9.09717 0.642171 8.52035 1.05103 8.00732C1.45988 7.4943 1.92212 7.23779 2.43774 7.23779V3.23779C2.16691 3.23779 1.93254 3.13883 1.73462 2.94092C1.5367 2.743 1.43774 2.50863 1.43774 2.23779C1.43774 1.96696 1.5367 1.73258 1.73462 1.53467C1.93254 1.33675 2.16691 1.23779 2.43774 1.23779H7.43774C7.70858 1.23779 7.94295 1.33675 8.14087 1.53467C8.33879 1.73258 8.43774 1.96696 8.43774 2.23779C8.43774 2.50863 8.33879 2.743 8.14087 2.94092C7.94295 3.13883 7.70858 3.23779 7.43774 3.23779V7.23779C7.95337 7.23779 8.41561 7.4943 8.82446 8.00732C9.23332 8.52035 9.43774 9.09717 9.43774 9.73779Z" fill="#86999B"/>
</g>
<defs>
<clipPath id="clip0_19_205">
<rect width="9" height="14" fill="white" transform="matrix(1 0 0 -1 0.437744 14.2378)"/>
</clipPath>
</defs>
</svg>
