<svg width="14" height="50" viewBox="0 0 14 50" fill="none" xmlns="http://www.w3.org/2000/svg">
<g id="Icon" clip-path="url(#clip0_19_196)">
<path id="Vector" d="M11.4229 27.2378C11.4229 27.0295 11.3499 26.8524 11.2041 26.7065L9.5791 25.0815C9.43327 24.9357 9.25618 24.8628 9.04785 24.8628C8.8291 24.8628 8.6416 24.9461 8.48535 25.1128C8.50098 25.1284 8.55046 25.1766 8.63379 25.2573C8.71712 25.3381 8.77311 25.394 8.80176 25.4253C8.8304 25.4565 8.86947 25.506 8.91895 25.5737C8.96842 25.6414 9.00228 25.7078 9.02051 25.7729C9.03874 25.8381 9.04785 25.9097 9.04785 25.9878C9.04785 26.1961 8.97493 26.3732 8.8291 26.519C8.68327 26.6649 8.50618 26.7378 8.29785 26.7378C8.21973 26.7378 8.14811 26.7287 8.08301 26.7104C8.0179 26.6922 7.9515 26.6584 7.88379 26.6089C7.81608 26.5594 7.7666 26.5203 7.73535 26.4917C7.7041 26.4631 7.64811 26.4071 7.56738 26.3237C7.48665 26.2404 7.43848 26.1909 7.42285 26.1753C7.25098 26.3368 7.16504 26.5269 7.16504 26.7456C7.16504 26.9539 7.23796 27.131 7.38379 27.2769L8.99316 28.894C9.13379 29.0347 9.31087 29.105 9.52441 29.105C9.73275 29.105 9.90983 29.0373 10.0557 28.9019L11.2041 27.7612C11.3499 27.6154 11.4229 27.4409 11.4229 27.2378ZM5.93066 21.73C5.93066 21.5216 5.85775 21.3446 5.71191 21.1987L4.10254 19.5815C3.95671 19.4357 3.77962 19.3628 3.57129 19.3628C3.36816 19.3628 3.19108 19.4331 3.04004 19.5737L1.8916 20.7144C1.74577 20.8602 1.67285 21.0347 1.67285 21.2378C1.67285 21.4461 1.74577 21.6232 1.8916 21.769L3.5166 23.394C3.65723 23.5347 3.83431 23.605 4.04785 23.605C4.2666 23.605 4.4541 23.5243 4.61035 23.3628C4.59473 23.3472 4.54525 23.299 4.46191 23.2183C4.37858 23.1375 4.32259 23.0815 4.29395 23.0503C4.2653 23.019 4.22624 22.9696 4.17676 22.9019C4.12728 22.8341 4.09342 22.7677 4.0752 22.7026C4.05697 22.6375 4.04785 22.5659 4.04785 22.4878C4.04785 22.2795 4.12077 22.1024 4.2666 21.9565C4.41243 21.8107 4.58952 21.7378 4.79785 21.7378C4.87598 21.7378 4.94759 21.7469 5.0127 21.7651C5.0778 21.7834 5.14421 21.8172 5.21191 21.8667C5.27962 21.9162 5.3291 21.9552 5.36035 21.9839C5.3916 22.0125 5.44759 22.0685 5.52832 22.1519C5.60905 22.2352 5.65723 22.2847 5.67285 22.3003C5.84473 22.1388 5.93066 21.9487 5.93066 21.73ZM12.2666 25.644C12.7041 26.0815 12.9229 26.6128 12.9229 27.2378C12.9229 27.8628 12.7015 28.3914 12.2588 28.8237L11.1104 29.9644C10.6781 30.3966 10.1494 30.6128 9.52441 30.6128C8.89421 30.6128 8.36296 30.3914 7.93066 29.9487L6.32129 28.3315C5.889 27.8993 5.67285 27.3706 5.67285 26.7456C5.67285 26.105 5.90202 25.5607 6.36035 25.1128L5.67285 24.4253C5.22493 24.8836 4.68327 25.1128 4.04785 25.1128C3.42285 25.1128 2.8916 24.894 2.4541 24.4565L0.829102 22.8315C0.391602 22.394 0.172852 21.8628 0.172852 21.2378C0.172852 20.6128 0.394206 20.0841 0.836914 19.6519L1.98535 18.5112C2.41764 18.0789 2.94629 17.8628 3.57129 17.8628C4.2015 17.8628 4.73275 18.0841 5.16504 18.5269L6.77441 20.144C7.20671 20.5763 7.42285 21.105 7.42285 21.73C7.42285 22.3706 7.19368 22.9149 6.73535 23.3628L7.42285 24.0503C7.87077 23.592 8.41243 23.3628 9.04785 23.3628C9.67285 23.3628 10.2041 23.5815 10.6416 24.019L12.2666 25.644Z" fill="#86999B"/>
</g>
<defs>
<clipPath id="clip0_19_196">
<rect width="13" height="49" fill="white" transform="matrix(1 0 0 -1 0.0478516 49.2378)"/>
</clipPath>
</defs>
</svg>
