<svg width="16" height="50" viewBox="0 0 16 50" fill="none" xmlns="http://www.w3.org/2000/svg">
<g id="Icon" clip-path="url(#clip0_19_227)">
<path id="Vector" d="M5.13037 21.1753C5.13037 21.1753 5.20329 21.2482 5.34912 21.394C5.49495 21.5399 5.56787 21.8211 5.56787 22.2378C5.56787 22.6545 5.42204 23.0086 5.13037 23.3003C4.8387 23.592 4.48454 23.7378 4.06787 23.7378C3.6512 23.7378 3.29704 23.592 3.00537 23.3003C2.7137 23.0086 2.56787 22.6545 2.56787 22.2378C2.56787 21.8211 2.7137 21.467 3.00537 21.1753C3.29704 20.8836 3.6512 20.7378 4.06787 20.7378C4.48454 20.7378 4.8387 20.8836 5.13037 21.1753ZM13.5679 25.2378V28.7378H2.56787V27.2378L5.06787 24.7378L6.31787 25.9878L10.3179 21.9878L13.5679 25.2378ZM14.3179 19.7378H1.81787C1.75016 19.7378 1.69157 19.7625 1.64209 19.812C1.59261 19.8615 1.56787 19.9201 1.56787 19.9878V29.4878C1.56787 29.5555 1.59261 29.6141 1.64209 29.6636C1.69157 29.7131 1.75016 29.7378 1.81787 29.7378H14.3179C14.3856 29.7378 14.4442 29.7131 14.4937 29.6636C14.5431 29.6141 14.5679 29.5555 14.5679 29.4878V19.9878C14.5679 19.9201 14.5431 19.8615 14.4937 19.812C14.4442 19.7625 14.3856 19.7378 14.3179 19.7378ZM15.5679 19.9878V29.4878C15.5679 29.8315 15.4455 30.1258 15.2007 30.3706C14.9559 30.6154 14.6616 30.7378 14.3179 30.7378H1.81787C1.47412 30.7378 1.17985 30.6154 0.935059 30.3706C0.690267 30.1258 0.567871 29.8315 0.567871 29.4878V19.9878C0.567871 19.644 0.690267 19.3498 0.935059 19.105C1.17985 18.8602 1.47412 18.7378 1.81787 18.7378H14.3179C14.6616 18.7378 14.9559 18.8602 15.2007 19.105C15.4455 19.3498 15.5679 19.644 15.5679 19.9878Z" fill="#86999B"/>
</g>
<defs>
<clipPath id="clip0_19_227">
<rect width="15" height="49" fill="white" transform="matrix(1 0 0 -1 0.567871 49.2378)"/>
</clipPath>
</defs>
</svg>
