<svg width="20" height="21" viewBox="0 0 20 21" fill="none" xmlns="http://www.w3.org/2000/svg">
<g id="Icon" clip-path="url(#clip0_19_112)">
<path id="Vector" d="M18.8248 6.32272C19.1225 6.74683 19.1894 7.22674 19.0257 7.76245L15.9565 17.8741C15.8152 18.3502 15.5306 18.7502 15.1027 19.0738C14.6749 19.3975 14.2192 19.5593 13.7356 19.5593H3.43422C2.8613 19.5593 2.30885 19.3603 1.77685 18.9622C1.24486 18.5642 0.874696 18.075 0.666363 17.4946C0.487791 16.9961 0.480351 16.5236 0.644041 16.0772C0.644041 16.0474 0.655202 15.947 0.677524 15.7758C0.699845 15.6047 0.714726 15.4671 0.722166 15.3629C0.729607 15.3034 0.718446 15.2234 0.688684 15.1229C0.658922 15.0225 0.647762 14.95 0.655202 14.9053C0.670083 14.8235 0.699845 14.7453 0.744488 14.6709C0.789131 14.5965 0.850515 14.5091 0.92864 14.4087C1.00676 14.3082 1.06815 14.2208 1.11279 14.1464C1.28392 13.8636 1.45133 13.5232 1.61502 13.1252C1.77871 12.7271 1.89032 12.3867 1.94985 12.104C1.97217 12.0296 1.97403 11.918 1.95543 11.7691C1.93682 11.6203 1.93496 11.5162 1.94985 11.4566C1.97217 11.3748 2.03541 11.2706 2.13958 11.1441C2.24374 11.0177 2.30699 10.9321 2.32931 10.8875C2.48556 10.6196 2.64181 10.2773 2.79806 9.86067C2.95431 9.444 3.04732 9.10918 3.07708 8.8562C3.08452 8.78924 3.07522 8.67019 3.04918 8.49906C3.02313 8.32793 3.02499 8.22376 3.05476 8.18656C3.08452 8.08983 3.16636 7.97637 3.30029 7.84616C3.43422 7.71595 3.51607 7.63224 3.54583 7.59504C3.6872 7.40159 3.84531 7.08723 4.02016 6.65196C4.19501 6.21669 4.29732 5.85769 4.32708 5.57495C4.33452 5.51543 4.32336 5.42056 4.2936 5.29035C4.26383 5.16015 4.25639 5.06156 4.27127 4.99459C4.28615 4.93507 4.31964 4.86811 4.37172 4.7937C4.4238 4.7193 4.49077 4.63373 4.57261 4.53701C4.65446 4.44028 4.7177 4.36215 4.76235 4.30263C4.82187 4.21334 4.88325 4.09988 4.9465 3.96223C5.00974 3.82458 5.06554 3.69437 5.11391 3.5716C5.16227 3.44884 5.22179 3.31491 5.29248 3.16982C5.36316 3.02473 5.43571 2.90568 5.51011 2.81268C5.58452 2.71967 5.6831 2.63224 5.80587 2.5504C5.92864 2.46855 6.06257 2.42577 6.20766 2.42205C6.35275 2.41833 6.52946 2.43879 6.73779 2.48343L6.72663 2.51692C7.00937 2.44995 7.1991 2.41647 7.29583 2.41647H15.7891C16.3397 2.41647 16.7638 2.6248 17.0615 3.04147C17.3591 3.45814 17.426 3.94177 17.2623 4.49236L14.2043 14.604C13.9365 15.4894 13.6705 16.0604 13.4063 16.3171C13.1422 16.5738 12.6641 16.7022 11.9722 16.7022H2.27351C2.07261 16.7022 1.93124 16.758 1.8494 16.8696C1.76755 16.9886 1.76383 17.1486 1.83824 17.3495C2.01681 17.8703 2.55252 18.1308 3.44538 18.1308H13.7467C13.9625 18.1308 14.1708 18.0731 14.3717 17.9578C14.5726 17.8424 14.7028 17.688 14.7623 17.4946L18.1106 6.47897C18.1626 6.31528 18.1812 6.10323 18.1664 5.84281C18.4491 5.95442 18.6686 6.11439 18.8248 6.32272ZM6.94985 6.34504C6.92008 6.44177 6.92752 6.52547 6.97217 6.59616C7.01681 6.66684 7.09121 6.70218 7.19538 6.70218H13.9811C14.0778 6.70218 14.1727 6.66684 14.2657 6.59616C14.3587 6.52547 14.4201 6.44177 14.4498 6.34504L14.6842 5.63076C14.714 5.53403 14.7065 5.45032 14.6619 5.37964C14.6173 5.30896 14.5429 5.27361 14.4387 5.27361H7.65297C7.55624 5.27361 7.46138 5.30896 7.36837 5.37964C7.27537 5.45032 7.21398 5.53403 7.18422 5.63076L6.94985 6.34504ZM6.02351 9.20218C5.99374 9.29891 6.00118 9.38262 6.04583 9.4533C6.09047 9.52398 6.16488 9.55933 6.26904 9.55933H13.0548C13.1515 9.55933 13.2463 9.52398 13.3394 9.4533C13.4324 9.38262 13.4937 9.29891 13.5235 9.20218L13.7579 8.4879C13.7876 8.39117 13.7802 8.30747 13.7356 8.23678C13.6909 8.1661 13.6165 8.13076 13.5123 8.13076H6.72663C6.62991 8.13076 6.53504 8.1661 6.44203 8.23678C6.34903 8.30747 6.28764 8.39117 6.25788 8.4879L6.02351 9.20218Z" fill="#355C7D"/>
</g>
<defs>
<clipPath id="clip0_19_112">
<rect width="18.58" height="20" fill="white" transform="matrix(1 0 0 -1 0.528076 20.9878)"/>
</clipPath>
</defs>
</svg>
