<svg width="17" height="17" viewBox="0 0 17 17" fill="none" xmlns="http://www.w3.org/2000/svg">
<g id="Icon" clip-path="url(#clip0_19_187)">
<path id="Vector" d="M15.8165 5.36719C15.8165 5.36719 15.9951 5.58669 16.3522 6.02568C16.7094 6.46466 16.8879 7.20202 16.8879 8.23773C16.8879 9.27345 16.5308 10.2303 15.8165 11.1083C15.1022 11.9862 14.132 12.6797 12.9058 13.1886C11.6796 13.6976 10.3403 13.952 8.88794 13.952C8.47127 13.952 8.03973 13.9282 7.5933 13.8806C6.41473 14.9223 5.04568 15.6425 3.48615 16.0413C3.19449 16.1246 2.8552 16.1901 2.4683 16.2377C2.36711 16.2496 2.27633 16.2229 2.19598 16.1574C2.11562 16.0919 2.06353 16.0056 2.03973 15.8984V15.8895C2.02187 15.8657 2.02038 15.83 2.03526 15.7824C2.05014 15.7348 2.05609 15.705 2.05312 15.6931C2.05014 15.6812 2.06353 15.6529 2.0933 15.6083C2.12306 15.5636 2.14092 15.5368 2.14687 15.5279C2.15282 15.519 2.17365 15.4937 2.20937 15.452C2.24508 15.4104 2.26889 15.3836 2.2808 15.3717C2.32246 15.324 2.41473 15.2214 2.55758 15.0636C2.70044 14.9059 2.80312 14.7928 2.86562 14.7243C2.92812 14.6559 3.02038 14.5383 3.1424 14.3717C3.26443 14.205 3.36115 14.0532 3.43258 13.9163C3.50401 13.7794 3.58437 13.6038 3.67365 13.3895C3.76294 13.1752 3.84032 12.949 3.9058 12.7109C2.97127 12.1812 2.23467 11.5264 1.69598 10.7467C1.15728 9.9669 0.887939 9.13059 0.887939 8.23773C0.887939 7.46392 1.09925 6.72434 1.52187 6.01898C1.94449 5.31362 2.51294 4.70499 3.22723 4.19309C3.94151 3.68118 4.7927 3.27493 5.7808 2.97434C6.76889 2.67374 7.80461 2.52344 8.88794 2.52344C10.3403 2.52344 11.6796 2.77791 12.9058 3.28684C14.132 3.79577 15.1022 4.48922 15.8165 5.36719Z" fill="white"/>
</g>
<defs>
<clipPath id="clip0_19_187">
<rect width="16" height="16" fill="white" transform="matrix(1 0 0 -1 0.887939 16.2378)"/>
</clipPath>
</defs>
</svg>
