<svg width="16" height="19" viewBox="0 0 16 19" fill="none" xmlns="http://www.w3.org/2000/svg">
<g id="Icon" clip-path="url(#clip0_19_330)">
<path id="Vector" d="M12.6695 1.52358C13.4664 1.52358 14.1477 1.8065 14.7136 2.37235C15.2794 2.9382 15.5624 3.61956 15.5624 4.41643V14.0593C15.5624 14.8562 15.2794 15.5375 14.7136 16.1034C14.1477 16.6692 13.4664 16.9521 12.6695 16.9521H3.02665C2.22977 16.9521 1.54841 16.6692 0.982561 16.1034C0.416713 15.5375 0.133789 14.8562 0.133789 14.0593V4.41643C0.133789 3.61956 0.416713 2.9382 0.982561 2.37235C1.54841 1.8065 2.22977 1.52358 3.02665 1.52358H12.6695ZM6.52218 10.7446C6.52218 10.7446 6.62598 10.6408 6.83357 10.4332C7.04115 10.2256 7.14495 9.82715 7.14495 9.23786C7.14495 8.64858 6.93736 8.14635 6.52218 7.73117C6.107 7.31599 5.60477 7.1084 5.01549 7.1084C4.4262 7.1084 3.92397 7.31599 3.50879 7.73117C3.09361 8.14635 2.88602 8.64858 2.88602 9.23786C2.88602 9.82715 3.09361 10.3294 3.50879 10.7446C3.92397 11.1597 4.4262 11.3673 5.01549 11.3673C5.60477 11.3673 6.107 11.1597 6.52218 10.7446ZM12.1874 10.7446C12.1874 10.7446 12.2912 10.6408 12.4987 10.4332C12.7063 10.2256 12.8101 9.82715 12.8101 9.23786C12.8101 8.64858 12.6025 8.14635 12.1874 7.73117C11.7722 7.31599 11.2699 7.1084 10.6807 7.1084C10.0914 7.1084 9.58915 7.31599 9.17397 7.73117C8.75879 8.14635 8.5512 8.64858 8.5512 9.23786C8.5512 9.82715 8.75879 10.3294 9.17397 10.7446C9.58915 11.1597 10.0914 11.3673 10.6807 11.3673C11.2699 11.3673 11.7722 11.1597 12.1874 10.7446Z" fill="#86999B"/>
</g>
<defs>
<clipPath id="clip0_19_330">
<rect width="15.44" height="18" fill="white" transform="matrix(1 0 0 -1 0.128174 18.2378)"/>
</clipPath>
</defs>
</svg>
