<svg width="18" height="18" viewBox="0 0 18 18" fill="none" xmlns="http://www.w3.org/2000/svg">
<g id="Icon" clip-path="url(#clip0_19_306)">
<path id="Vector" d="M17.5679 6.97321V14.5056C17.5679 14.923 17.4194 15.2803 17.1223 15.5776C16.8252 15.8748 16.4681 16.0234 16.0509 16.0234H2.09485C1.67768 16.0234 1.32056 15.8748 1.02349 15.5776C0.726417 15.2803 0.577881 14.923 0.577881 14.5056V6.97321C0.855991 7.28311 1.17519 7.55822 1.53547 7.79855C3.82355 9.35435 5.39425 10.4453 6.24754 11.0714C6.60782 11.3371 6.90015 11.5442 7.12453 11.6928C7.34892 11.8414 7.64757 11.9932 8.02049 12.1482C8.39341 12.3031 8.74105 12.3806 9.06341 12.3806H9.07289H9.08237C9.40472 12.3806 9.75236 12.3031 10.1253 12.1482C10.4982 11.9932 10.7969 11.8414 11.0212 11.6928C11.2456 11.5442 11.538 11.3371 11.8982 11.0714C12.9728 10.2935 14.5466 9.20257 16.6198 7.79855C16.9801 7.5519 17.2961 7.27679 17.5679 6.97321ZM17.5679 4.18415C17.5679 4.68378 17.413 5.16127 17.1033 5.61663C16.7936 6.07199 16.408 6.46094 15.9466 6.78348C13.5701 8.43415 12.091 9.46187 11.5095 9.86663C11.4463 9.9109 11.312 10.0073 11.1066 10.156C10.9011 10.3046 10.7305 10.4248 10.5946 10.5165C10.4587 10.6082 10.2944 10.7109 10.1016 10.8248C9.9088 10.9386 9.72708 11.024 9.55642 11.0809C9.38576 11.1378 9.22774 11.1663 9.08237 11.1663H9.07289H9.06341C8.91803 11.1663 8.76001 11.1378 8.58935 11.0809C8.4187 11.024 8.23698 10.9386 8.04419 10.8248C7.85141 10.7109 7.68708 10.6082 7.55118 10.5165C7.41529 10.4248 7.24463 10.3046 7.03921 10.156C6.83378 10.0073 6.69947 9.9109 6.63626 9.86663C6.06108 9.46187 5.23307 8.88477 4.15223 8.13532C3.07139 7.38588 2.42352 6.93527 2.20862 6.78348C1.81674 6.51786 1.44698 6.15262 1.09934 5.68778C0.7517 5.22293 0.577881 4.79129 0.577881 4.39286C0.577881 3.89955 0.709035 3.48847 0.971344 3.1596C1.23365 2.83073 1.60815 2.66629 2.09485 2.66629H16.0509C16.4618 2.66629 16.8173 2.81492 17.1175 3.11217C17.4178 3.40941 17.5679 3.76674 17.5679 4.18415Z" fill="#86999B"/>
</g>
<defs>
<clipPath id="clip0_19_306">
<rect width="17.01" height="17" fill="white" transform="matrix(1 0 0 -1 0.567871 17.2378)"/>
</clipPath>
</defs>
</svg>
