<svg width="21" height="21" viewBox="0 0 21 21" fill="none" xmlns="http://www.w3.org/2000/svg">
<g id="Icon" clip-path="url(#clip0_19_107)">
<path id="Vector" d="M4.11935 3.84504C4.11935 4.38076 3.88125 4.78998 3.40506 5.07272V19.2022C3.40506 19.2989 3.36972 19.3826 3.29904 19.4533C3.22835 19.524 3.14465 19.5593 3.04792 19.5593H2.33364C2.23691 19.5593 2.1532 19.524 2.08252 19.4533C2.01184 19.3826 1.97649 19.2989 1.97649 19.2022V5.07272C1.5003 4.78998 1.26221 4.38076 1.26221 3.84504C1.26221 3.4507 1.40172 3.11402 1.68073 2.835C1.95975 2.55598 2.29643 2.41647 2.69078 2.41647C3.08512 2.41647 3.42181 2.55598 3.70082 2.835C3.97984 3.11402 4.11935 3.4507 4.11935 3.84504ZM20.5479 4.55933V13.075C20.5479 13.261 20.5014 13.4042 20.4084 13.5046C20.3154 13.6051 20.1685 13.7074 19.9676 13.8116C18.3679 14.6747 16.9951 15.1062 15.8493 15.1062C15.3954 15.1062 14.9359 15.0244 14.4709 14.8607C14.0059 14.697 13.6022 14.5184 13.26 14.325C12.9177 14.1315 12.488 13.9529 11.9709 13.7892C11.4538 13.6255 10.9237 13.5437 10.3805 13.5437C8.95194 13.5437 7.22575 14.0869 5.20194 15.1732C5.07545 15.2401 4.95268 15.2736 4.83364 15.2736C4.64018 15.2736 4.47277 15.2029 4.3314 15.0616C4.19003 14.9202 4.11935 14.7528 4.11935 14.5593V6.27808C4.11935 6.03998 4.23468 5.83537 4.46533 5.66424C4.62158 5.56007 4.91548 5.4001 5.34703 5.18433C7.10298 4.29147 8.6692 3.84504 10.0457 3.84504C10.8418 3.84504 11.5859 3.95293 12.2778 4.1687C12.9698 4.38448 13.7845 4.71186 14.722 5.15084C15.0048 5.29221 15.3321 5.3629 15.7042 5.3629C16.106 5.3629 16.5431 5.28477 17.0156 5.12852C17.488 4.97227 17.8973 4.79742 18.2432 4.60397C18.5892 4.41052 18.9166 4.23567 19.2254 4.07942C19.5342 3.92317 19.7369 3.84504 19.8336 3.84504C20.0271 3.84504 20.1945 3.91573 20.3359 4.05709C20.4772 4.19846 20.5479 4.36587 20.5479 4.55933Z" fill="#355C7D"/>
</g>
<defs>
<clipPath id="clip0_19_107">
<rect width="20" height="20" fill="white" transform="matrix(1 0 0 -1 0.547852 20.9878)"/>
</clipPath>
</defs>
</svg>
