<svg width="20" height="21" viewBox="0 0 20 21" fill="none" xmlns="http://www.w3.org/2000/svg">
<g id="Icon" clip-path="url(#clip0_19_102)">
<path id="Vector" d="M6.08402 10.8428C5.53342 9.63745 5.25813 8.25724 5.25813 6.70218H2.40098V7.77361C2.40098 8.35397 2.75255 8.95665 3.45567 9.58165C4.1588 10.2066 5.03491 10.627 6.08402 10.8428ZM18.1153 7.77361V6.70218H15.2581C15.2581 8.25724 14.9828 9.63745 14.4322 10.8428C15.4813 10.627 16.3575 10.2066 17.0606 9.58165C17.7637 8.95665 18.1153 8.35397 18.1153 7.77361ZM19.5438 6.34504V7.77361C19.5438 8.30189 19.3895 8.83388 19.0807 9.36959C18.7719 9.90531 18.3552 10.3889 17.8307 10.8205C17.3061 11.252 16.6625 11.6148 15.8999 11.9087C15.1372 12.2026 14.3355 12.3681 13.4947 12.4053C13.1822 12.8071 12.8288 13.1605 12.4345 13.4656C12.1517 13.7186 11.9564 13.9883 11.8485 14.2747C11.7406 14.5612 11.6867 14.8941 11.6867 15.2736C11.6867 15.6754 11.8002 16.0139 12.0271 16.2892C12.254 16.5645 12.6168 16.7022 13.1153 16.7022C13.6733 16.7022 14.17 16.8715 14.6052 17.21C15.0405 17.5485 15.2581 17.9745 15.2581 18.4879V19.2022C15.2581 19.3063 15.2246 19.3919 15.1577 19.4589C15.0907 19.5258 15.0052 19.5593 14.901 19.5593H5.61527C5.5111 19.5593 5.42554 19.5258 5.35857 19.4589C5.29161 19.3919 5.25813 19.3063 5.25813 19.2022V18.4879C5.25813 17.9745 5.47576 17.5485 5.91103 17.21C6.3463 16.8715 6.84295 16.7022 7.40098 16.7022C7.8995 16.7022 8.26222 16.5645 8.48915 16.2892C8.71609 16.0139 8.82956 15.6754 8.82956 15.2736C8.82956 14.8941 8.77561 14.5612 8.66772 14.2747C8.55984 13.9883 8.36453 13.7186 8.08179 13.4656C7.68744 13.1605 7.33402 12.8071 7.02152 12.4053C6.18075 12.3681 5.37903 12.2026 4.61639 11.9087C3.85374 11.6148 3.21014 11.252 2.68558 10.8205C2.16103 10.3889 1.74436 9.90531 1.43558 9.36959C1.1268 8.83388 0.972412 8.30189 0.972412 7.77361V6.34504C0.972412 6.04742 1.07658 5.79445 1.28491 5.58611C1.49325 5.37778 1.74622 5.27361 2.04384 5.27361H5.25813V4.20218C5.25813 3.71111 5.43298 3.29073 5.78268 2.94102C6.13238 2.59132 6.55277 2.41647 7.04384 2.41647H13.4724C13.9635 2.41647 14.3839 2.59132 14.7336 2.94102C15.0833 3.29073 15.2581 3.71111 15.2581 4.20218V5.27361H18.4724C18.77 5.27361 19.023 5.37778 19.2313 5.58611C19.4397 5.79445 19.5438 6.04742 19.5438 6.34504Z" fill="#355C7D"/>
</g>
<defs>
<clipPath id="clip0_19_102">
<rect width="18.58" height="20" fill="white" transform="matrix(1 0 0 -1 0.968018 20.9878)"/>
</clipPath>
</defs>
</svg>
