<svg width="11" height="18" viewBox="0 0 11 18" fill="none" xmlns="http://www.w3.org/2000/svg">
<g id="Icon" clip-path="url(#clip0_19_303)">
<path id="Vector" d="M7.13826 8.02623C7.13826 8.02623 7.25672 7.90765 7.49364 7.67048C7.73056 7.43331 7.84902 6.97954 7.84902 6.30915C7.84902 5.63876 7.6121 5.06641 7.13826 4.59208C6.66441 4.11775 6.09264 3.88058 5.42295 3.88058C4.75325 3.88058 4.18148 4.11775 3.70764 4.59208C3.23379 5.06641 2.99687 5.63876 2.99687 6.30915C2.99687 6.97954 3.23379 7.5519 3.70764 8.02623C4.18148 8.50056 4.75325 8.73772 5.42295 8.73772C6.09264 8.73772 6.66441 8.50056 7.13826 8.02623ZM10.2751 6.30915C10.2751 6.99851 10.1708 7.56455 9.96236 8.00725L6.51278 15.3499C6.4117 15.5586 6.26165 15.723 6.06263 15.8432C5.86362 15.9634 5.65039 16.0234 5.42295 16.0234C5.1955 16.0234 4.98227 15.9634 4.78326 15.8432C4.58425 15.723 4.43735 15.5586 4.34259 15.3499L0.883537 8.00725C0.675046 7.56455 0.570801 6.99851 0.570801 6.30915C0.570801 4.96838 1.04464 3.82366 1.99233 2.875C2.94001 1.92634 4.08355 1.45201 5.42295 1.45201C6.76234 1.45201 7.90588 1.92634 8.85357 2.875C9.80125 3.82366 10.2751 4.96838 10.2751 6.30915Z" fill="#86999B"/>
</g>
<defs>
<clipPath id="clip0_19_303">
<rect width="9.71" height="17" fill="white" transform="matrix(1 0 0 -1 0.567871 17.2378)"/>
</clipPath>
</defs>
</svg>
