<svg width="16" height="43" viewBox="0 0 16 43" fill="none" xmlns="http://www.w3.org/2000/svg">
<g id="Icon" clip-path="url(#clip0_19_124)">
<path id="Vector" d="M13.7588 22.9487C13.915 23.105 13.9932 23.2847 13.9932 23.4878C13.9932 23.6909 13.915 23.8706 13.7588 24.0269L2.83691 34.9487C2.68066 35.105 2.50098 35.1831 2.29785 35.1831C2.09473 35.1831 1.91504 35.105 1.75879 34.9487L0.586914 33.7769C0.430664 33.6206 0.352539 33.4409 0.352539 33.2378C0.352539 33.0347 0.430664 32.855 0.586914 32.6987L9.79785 23.4878L0.586914 14.2769C0.430664 14.1206 0.352539 13.9409 0.352539 13.7378C0.352539 13.5347 0.430664 13.355 0.586914 13.1987L1.75879 12.0269C1.91504 11.8706 2.09473 11.7925 2.29785 11.7925C2.50098 11.7925 2.68066 11.8706 2.83691 12.0269L13.7588 22.9487Z" fill="#355C7D"/>
</g>
<defs>
<clipPath id="clip0_19_124">
<rect width="15" height="42" fill="white" transform="matrix(1 0 0 -1 0.0478516 42.9878)"/>
</clipPath>
</defs>
</svg>
