<svg width="14" height="18" viewBox="0 0 14 18" fill="none" xmlns="http://www.w3.org/2000/svg">
<g id="Icon" clip-path="url(#clip0_19_311)">
<path id="Vector" d="M13.9265 12.001C13.9265 12.1718 13.8949 12.3947 13.8316 12.6699C13.7684 12.945 13.702 13.1616 13.6324 13.3197C13.4996 13.6359 13.1138 13.9711 12.475 14.3253C11.8805 14.6478 11.2924 14.8091 10.7105 14.8091C10.5398 14.8091 10.3737 14.798 10.2125 14.7759C10.0512 14.7537 9.86937 14.7142 9.66699 14.6573C9.46461 14.6004 9.31441 14.5545 9.21638 14.5197C9.11835 14.485 8.94285 14.4201 8.68987 14.3253C8.4369 14.2304 8.28195 14.1735 8.22503 14.1545C7.60524 13.9332 7.05185 13.6707 6.56487 13.3671C5.75535 12.8675 4.91895 12.186 4.05566 11.3228C3.19238 10.4595 2.51093 9.62307 2.0113 8.81355C1.70773 8.32657 1.44527 7.77318 1.22391 7.15339C1.20494 7.09647 1.14802 6.94152 1.05315 6.68855C0.958287 6.43557 0.893462 6.26007 0.858677 6.16204C0.823893 6.06401 0.778041 5.91381 0.721122 5.71143C0.664202 5.50904 0.624674 5.32722 0.602539 5.16595C0.580404 5.00467 0.569336 4.83866 0.569336 4.6679C0.569336 4.08605 0.730608 3.49788 1.05315 2.90339C1.40732 2.26462 1.74251 1.87884 2.05873 1.74602C2.21684 1.67646 2.43345 1.61005 2.70857 1.54681C2.98368 1.48356 3.20661 1.45194 3.37737 1.45194C3.46591 1.45194 3.53232 1.46143 3.57659 1.4804C3.69043 1.51834 3.85803 1.75867 4.07938 2.20138C4.14895 2.32154 4.24382 2.4923 4.36398 2.71366C4.48414 2.93501 4.59482 3.13581 4.69601 3.31606C4.7972 3.4963 4.89523 3.66548 4.9901 3.82359C5.00907 3.84889 5.06441 3.92794 5.15611 4.06076C5.24781 4.19357 5.3158 4.30583 5.36007 4.39753C5.40434 4.48923 5.42648 4.57936 5.42648 4.6679C5.42648 4.79439 5.33636 4.9525 5.15611 5.14223C4.97586 5.33196 4.77981 5.50588 4.56794 5.66399C4.35607 5.8221 4.16002 5.9897 3.97977 6.16678C3.79953 6.34387 3.7094 6.48933 3.7094 6.60317C3.7094 6.66009 3.72521 6.73124 3.75684 6.81662C3.78846 6.90199 3.81534 6.96682 3.83747 7.01109C3.85961 7.05536 3.90388 7.13125 3.97028 7.23877C4.03669 7.34628 4.07306 7.40637 4.07938 7.41901C4.56004 8.28546 5.11026 9.02858 5.73005 9.64837C6.34984 10.2682 7.09296 10.8184 7.9594 11.299C7.97205 11.3054 8.03213 11.3417 8.13965 11.4081C8.24716 11.4745 8.32306 11.5188 8.36733 11.5409C8.4116 11.5631 8.47642 11.59 8.5618 11.6216C8.64718 11.6532 8.71833 11.669 8.77525 11.669C8.88909 11.669 9.03455 11.5789 9.21164 11.3986C9.38872 11.2184 9.55632 11.0223 9.71443 10.8105C9.87254 10.5986 10.0465 10.4026 10.2362 10.2223C10.4259 10.0421 10.584 9.95194 10.7105 9.95194C10.7991 9.95194 10.8892 9.97407 10.9809 10.0183C11.0726 10.0626 11.1848 10.1306 11.3177 10.2223C11.4505 10.314 11.5295 10.3693 11.5548 10.3883C11.7129 10.4832 11.8821 10.5812 12.0624 10.6824C12.2426 10.7836 12.4434 10.8943 12.6648 11.0144C12.8861 11.1346 13.0569 11.2295 13.177 11.299C13.6197 11.5204 13.8601 11.688 13.898 11.8018C13.917 11.8461 13.9265 11.9125 13.9265 12.001Z" fill="#86999B"/>
</g>
<defs>
<clipPath id="clip0_19_311">
<rect width="13.36" height="17" fill="white" transform="matrix(1 0 0 -1 0.567871 17.2378)"/>
</clipPath>
</defs>
</svg>
