<svg width="16" height="43" viewBox="0 0 16 43" fill="none" xmlns="http://www.w3.org/2000/svg">
<g id="Icon">
<path id="Vector" d="M14.5088 13.1987C14.665 13.355 14.7432 13.5347 14.7432 13.7378C14.7432 13.9409 14.665 14.1206 14.5088 14.2769L5.29785 23.4878L14.5088 32.6987C14.665 32.855 14.7432 33.0347 14.7432 33.2378C14.7432 33.4409 14.665 33.6206 14.5088 33.7769L13.3369 34.9487C13.1807 35.105 13.001 35.1831 12.7979 35.1831C12.5947 35.1831 12.415 35.105 12.2588 34.9487L1.33691 24.0269C1.18066 23.8706 1.10254 23.6909 1.10254 23.4878C1.10254 23.2847 1.18066 23.105 1.33691 22.9487L12.2588 12.0269C12.415 11.8706 12.5947 11.7925 12.7979 11.7925C13.001 11.7925 13.1807 11.8706 13.3369 12.0269L14.5088 13.1987Z" fill="#355C7D"/>
</g>
</svg>
