<svg width="22" height="21" viewBox="0 0 22 21" fill="none" xmlns="http://www.w3.org/2000/svg">
<g id="Icon" clip-path="url(#clip0_19_97)">
<path id="Vector" d="M6.89199 10.9878C5.68663 11.025 4.70077 11.5012 3.9344 12.4164H2.43886C1.82874 12.4164 1.31535 12.2657 0.898682 11.9644C0.482015 11.663 0.273682 11.2222 0.273682 10.6418C0.273682 8.01532 0.734991 6.70208 1.65761 6.70208C1.70225 6.70208 1.86408 6.7802 2.1431 6.93645C2.42212 7.0927 2.78484 7.25081 3.23127 7.41078C3.6777 7.57075 4.12041 7.65074 4.5594 7.65074C5.05791 7.65074 5.5527 7.56517 6.04377 7.39404C6.00657 7.66934 5.98797 7.91488 5.98797 8.13065C5.98797 9.16488 6.28931 10.1173 6.89199 10.9878ZM18.8451 18.0972C18.8451 18.99 18.5735 19.695 18.0304 20.2121C17.4872 20.7292 16.7655 20.9878 15.8652 20.9878H6.11074C5.21044 20.9878 4.48871 20.7292 3.94556 20.2121C3.4024 19.695 3.13082 18.99 3.13082 18.0972C3.13082 17.7028 3.14385 17.3178 3.16989 16.942C3.19593 16.5663 3.24801 16.1608 3.32614 15.7255C3.40426 15.2902 3.50285 14.8866 3.6219 14.5146C3.74094 14.1426 3.90091 13.7798 4.10181 13.4264C4.3027 13.073 4.53335 12.7716 4.79377 12.5224C5.05419 12.2731 5.37227 12.0741 5.74801 11.9253C6.12376 11.7765 6.53856 11.7021 6.99243 11.7021C7.06684 11.7021 7.22681 11.7821 7.47234 11.942C7.71788 12.102 7.98946 12.2806 8.28708 12.4777C8.58469 12.6749 8.98276 12.8535 9.48127 13.0135C9.97978 13.1734 10.482 13.2534 10.988 13.2534C11.4939 13.2534 11.9962 13.1734 12.4947 13.0135C12.9932 12.8535 13.3912 12.6749 13.6889 12.4777C13.9865 12.2806 14.2581 12.102 14.5036 11.942C14.7491 11.7821 14.9091 11.7021 14.9835 11.7021C15.4374 11.7021 15.8522 11.7765 16.2279 11.9253C16.6037 12.0741 16.9217 12.2731 17.1822 12.5224C17.4426 12.7716 17.6732 13.073 17.8741 13.4264C18.075 13.7798 18.235 14.1426 18.354 14.5146C18.4731 14.8866 18.5717 15.2902 18.6498 15.7255C18.7279 16.1608 18.78 16.5663 18.806 16.942C18.8321 17.3178 18.8451 17.7028 18.8451 18.0972ZM6.57949 1.82485C6.57949 1.82485 6.71899 1.96436 6.99801 2.24337C7.27703 2.52239 7.41654 3.05625 7.41654 3.84494C7.41654 4.63363 7.13752 5.30699 6.57949 5.86502C6.02145 6.42306 5.34809 6.70208 4.5594 6.70208C3.77071 6.70208 3.09734 6.42306 2.53931 5.86502C1.98127 5.30699 1.70225 4.63363 1.70225 3.84494C1.70225 3.05625 1.98127 2.38288 2.53931 1.82485C3.09734 1.26681 3.77071 0.987793 4.5594 0.987793C5.34809 0.987793 6.02145 1.26681 6.57949 1.82485ZM14.0181 5.10052C14.0181 5.10052 14.2274 5.30978 14.6459 5.72831C15.0644 6.14683 15.2737 6.94761 15.2737 8.13065C15.2737 9.31369 14.8552 10.3237 14.0181 11.1608C13.181 11.9978 12.171 12.4164 10.988 12.4164C9.80493 12.4164 8.79489 11.9978 7.95783 11.1608C7.12078 10.3237 6.70225 9.31369 6.70225 8.13065C6.70225 6.94761 7.12078 5.93757 7.95783 5.10052C8.79489 4.26346 9.80493 3.84494 10.988 3.84494C12.171 3.84494 13.181 4.26346 14.0181 5.10052ZM21.7023 10.6418C21.7023 11.2222 21.4939 11.663 21.0773 11.9644C20.6606 12.2657 20.1472 12.4164 19.5371 12.4164H18.0415C17.2752 11.5012 16.2893 11.025 15.084 10.9878C15.6866 10.1173 15.988 9.16488 15.988 8.13065C15.988 7.91488 15.9694 7.66934 15.9322 7.39404C16.4232 7.56517 16.918 7.65074 17.4165 7.65074C17.8555 7.65074 18.2982 7.57075 18.7447 7.41078C19.1911 7.25081 19.5538 7.0927 19.8328 6.93645C20.1119 6.7802 20.2737 6.70208 20.3183 6.70208C21.2409 6.70208 21.7023 8.01532 21.7023 10.6418ZM19.4366 1.82485C19.4366 1.82485 19.5761 1.96436 19.8552 2.24337C20.1342 2.52239 20.2737 3.05625 20.2737 3.84494C20.2737 4.63363 19.9947 5.30699 19.4366 5.86502C18.8786 6.42306 18.2052 6.70208 17.4165 6.70208C16.6278 6.70208 15.9545 6.42306 15.3965 5.86502C14.8384 5.30699 14.5594 4.63363 14.5594 3.84494C14.5594 3.05625 14.8384 2.38288 15.3965 1.82485C15.9545 1.26681 16.6278 0.987793 17.4165 0.987793C18.2052 0.987793 18.8786 1.26681 19.4366 1.82485Z" fill="#355C7D"/>
</g>
<defs>
<clipPath id="clip0_19_97">
<rect width="21.44" height="20" fill="white" transform="matrix(1 0 0 -1 0.268066 20.9878)"/>
</clipPath>
</defs>
</svg>
