<svg width="18" height="19" viewBox="0 0 18 19" fill="none" xmlns="http://www.w3.org/2000/svg">
<g id="Icon" clip-path="url(#clip0_19_326)">
<path id="Vector" d="M16.7632 4.33615C16.3146 4.9924 15.7721 5.55155 15.136 6.0136C15.1427 6.10735 15.146 6.24798 15.146 6.43548C15.146 7.30601 15.0188 8.17487 14.7643 9.04206C14.5099 9.90925 14.1232 10.7413 13.6042 11.5382C13.0852 12.335 12.4675 13.0398 11.7509 13.6526C11.0344 14.2653 10.1706 14.7541 9.15942 15.1191C8.14826 15.484 7.06679 15.6665 5.915 15.6665C4.10027 15.6665 2.43956 15.181 0.932861 14.21C1.16724 14.2368 1.4284 14.2502 1.71634 14.2502C3.22304 14.2502 4.56567 13.7882 5.74425 12.864C5.04112 12.8507 4.41166 12.6347 3.85585 12.2162C3.30005 11.7976 2.91835 11.2636 2.71076 10.614C2.93175 10.6475 3.13599 10.6643 3.32349 10.6643C3.61143 10.6643 3.89603 10.6274 4.17728 10.5538C3.42728 10.3998 2.80619 10.0264 2.314 9.4338C1.82181 8.84117 1.57572 8.15311 1.57572 7.36963V7.32945C2.03108 7.58391 2.51991 7.72119 3.04224 7.74128C2.60027 7.44664 2.24871 7.06159 1.98755 6.58615C1.72639 6.1107 1.59581 5.59508 1.59581 5.03927C1.59581 4.44999 1.74313 3.90423 2.03777 3.40199C2.84804 4.39976 3.83409 5.19831 4.99592 5.79764C6.15775 6.39697 7.40161 6.73012 8.7275 6.79708C8.67393 6.54262 8.64715 6.29485 8.64715 6.05378C8.64715 5.15646 8.96355 4.39139 9.59637 3.75858C10.2292 3.12577 10.9942 2.80936 11.8916 2.80936C12.8291 2.80936 13.6192 3.15088 14.2621 3.83391C14.992 3.69329 15.6784 3.43213 16.3213 3.05043C16.0735 3.82052 15.598 4.4165 14.8949 4.83838C15.5177 4.77141 16.1405 4.604 16.7632 4.33615Z" fill="#86999B"/>
</g>
<defs>
<clipPath id="clip0_19_326">
<rect width="16.72" height="18" fill="white" transform="matrix(1 0 0 -1 0.488037 18.2378)"/>
</clipPath>
</defs>
</svg>
