<svg width="16" height="19" viewBox="0 0 16 19" fill="none" xmlns="http://www.w3.org/2000/svg">
<g id="Icon" clip-path="url(#clip0_19_334)">
<path id="Vector" d="M9.88717 12.7333V14.8527C9.88717 15.3014 9.75659 15.5257 9.49543 15.5257C9.34141 15.5257 9.19074 15.4521 9.04342 15.3048V12.2813C9.19074 12.134 9.34141 12.0603 9.49543 12.0603C9.75659 12.0603 9.88717 12.2847 9.88717 12.7333ZM13.2823 12.7434V13.2054H12.3782V12.7434C12.3782 12.288 12.5289 12.0603 12.8303 12.0603C13.1316 12.0603 13.2823 12.288 13.2823 12.7434ZM3.57914 10.5536H4.65391V9.60944H1.51998V10.5536H2.57467V16.269H3.57914V10.5536ZM6.47199 16.269H7.36597V11.307H6.47199V15.1039C6.2711 15.3851 6.08025 15.5257 5.89945 15.5257C5.77891 15.5257 5.7086 15.4554 5.68851 15.3148C5.68182 15.2947 5.67847 15.1775 5.67847 14.9632V11.307H4.78449V15.2344C4.78449 15.5626 4.81128 15.807 4.86485 15.9677C4.94521 16.2155 5.1394 16.3394 5.44744 16.3394C5.76887 16.3394 6.11039 16.1351 6.47199 15.7266V16.269ZM10.7811 14.7824V12.8036C10.7811 12.3148 10.751 11.9833 10.6907 11.8092C10.5769 11.4342 10.3392 11.2467 9.97757 11.2467C9.64275 11.2467 9.33137 11.4275 9.04342 11.7891V9.60944H8.14945V16.269H9.04342V15.7869C9.34476 16.1552 9.65615 16.3394 9.97757 16.3394C10.3392 16.3394 10.5769 16.1552 10.6907 15.7869C10.751 15.6061 10.7811 15.2713 10.7811 14.7824ZM14.1762 14.682V14.5514H13.2622C13.2622 14.8929 13.2555 15.0972 13.2421 15.1641C13.1952 15.4052 13.0613 15.5257 12.8403 15.5257C12.5323 15.5257 12.3782 15.2947 12.3782 14.8327V13.9588H14.1762V12.9242C14.1762 12.3952 14.0858 12.0068 13.905 11.759C13.6439 11.4175 13.289 11.2467 12.8403 11.2467C12.3849 11.2467 12.0267 11.4175 11.7655 11.759C11.578 12.0068 11.4843 12.3952 11.4843 12.9242V14.6619C11.4843 15.1909 11.5814 15.5793 11.7756 15.8271C12.0367 16.1686 12.3983 16.3394 12.8604 16.3394C13.3425 16.3394 13.7041 16.1619 13.9452 15.807C14.0657 15.6262 14.1361 15.4454 14.1561 15.2646C14.1695 15.2043 14.1762 15.0101 14.1762 14.682ZM8.06909 5.51123V3.40186C8.06909 2.9398 7.92512 2.70878 7.63717 2.70878C7.34923 2.70878 7.20525 2.9398 7.20525 3.40186V5.51123C7.20525 5.97998 7.34923 6.21436 7.63717 6.21436C7.92512 6.21436 8.06909 5.97998 8.06909 5.51123ZM15.2912 13.0548C15.2912 14.6217 15.2041 15.7936 15.03 16.5704C14.9363 16.9655 14.7421 17.2969 14.4474 17.5648C14.1528 17.8327 13.8113 17.9867 13.4229 18.0269C12.1907 18.1675 10.3325 18.2378 7.84811 18.2378C5.36373 18.2378 3.50548 18.1675 2.27333 18.0269C1.88494 17.9867 1.54175 17.8327 1.24376 17.5648C0.945766 17.2969 0.753244 16.9655 0.66619 16.5704C0.492083 15.8204 0.405029 14.6485 0.405029 13.0548C0.405029 11.4878 0.492083 10.3159 0.66619 9.53913C0.75994 9.14404 0.954136 8.81257 1.24878 8.54471C1.54342 8.27686 1.88829 8.11949 2.28338 8.07261C3.50882 7.93869 5.36373 7.87172 7.84811 7.87172C10.3325 7.87172 12.1907 7.93869 13.4229 8.07261C13.8113 8.11949 14.1545 8.27686 14.4525 8.54471C14.7505 8.81257 14.943 9.14404 15.03 9.53913C15.2041 10.2891 15.2912 11.461 15.2912 13.0548ZM5.26664 0.237793H6.29119L5.07579 4.24561V6.9677H4.07132V4.24561C3.97757 3.75007 3.77333 3.04025 3.4586 2.11614C3.21083 1.42641 2.9932 0.800293 2.8057 0.237793H3.87043L4.5836 2.87953L5.26664 0.237793ZM8.98315 3.58266V5.34047C8.98315 5.88288 8.8894 6.27797 8.7019 6.52574C8.45414 6.86726 8.09923 7.03802 7.63717 7.03802C7.18851 7.03802 6.83695 6.86726 6.58248 6.52574C6.39498 6.27128 6.30123 5.87619 6.30123 5.34047V3.58266C6.30123 3.04694 6.39498 2.6552 6.58248 2.40744C6.83695 2.06592 7.18851 1.89516 7.63717 1.89516C8.09923 1.89516 8.45414 2.06592 8.7019 2.40744C8.8894 2.6552 8.98315 3.04694 8.98315 3.58266ZM12.3481 1.95543V6.9677H11.434V6.41525C11.0791 6.83043 10.7343 7.03802 10.3994 7.03802C10.0914 7.03802 9.89387 6.91413 9.80682 6.66636C9.75324 6.50565 9.72646 6.25453 9.72646 5.91302V1.95543H10.6405V5.64181C10.6405 5.86279 10.6439 5.97998 10.6506 5.99337C10.6707 6.14069 10.741 6.21436 10.8615 6.21436C11.0423 6.21436 11.2332 6.07038 11.434 5.78244V1.95543H12.3481Z" fill="#86999B"/>
</g>
<defs>
<clipPath id="clip0_19_334">
<rect width="15.44" height="18" fill="white" transform="matrix(1 0 0 -1 0.128174 18.2378)"/>
</clipPath>
</defs>
</svg>
